<svg xmlns="http://www.w3.org/2000/svg" viewBox = "-5 -5 281 178" version = "1.1">
<g id= "蜒" file = "50" style="fill:none;stroke:#000000;stroke-width:5;stroke-linecap:round;stroke-linejoin:round;">
<path id = "蜒_1" d = "M2 52 L0 52 L17 75 L27 103 L26 105  " />
<path id = "蜒_2" d = "M27 60 L47 57 L87 53 L98 55 L98 62 L80 83 L33 107 L36 107 L61 94 L71 83  " />
<path id = "蜒_3" d = "M58 19 L58 22 L65 62 L63 87 L61 108 L60 124 L56 135 L50 143  " />
<path id = "蜒_4" d = "M36 150 L35 152 L50 153 L63 149 L82 145 L98 137  " />
<path id = "蜒_5" d = "M123 98 L123 102 L132 119 L133 130  " />
<path id = "蜒_6" d = "M228 0 L226 7 L220 12 L181 25 L176 28 L171 38  " />
<path id = "蜒_7" d = "M201 47 L216 64 L211 90 L208 94 L207 97 L235 80 L242 72 L246 64  " />
<path id = "蜒_8" d = "M190 63 L190 69 L198 89 L198 104 L187 124 L178 123 L177 122 L183 120 L222 113 L237 107 L242 100  " />
<path id = "蜒_9" d = "M150 20 L147 19 L160 20 L175 25 L185 34 L186 45 L156 80 L173 110 L178 133 L175 160 L171 168 L162 160  " />
<path id = "蜒_10" d = "M152 133 L160 135 L202 157 L233 163 L246 164 L262 165 L271 150  " />
</g></svg> 